<?xml version="1.0" standalone="no"?><!DOCTYPE svg PUBLIC "-//W3C//DTD SVG 1.1//EN" "http://www.w3.org/Graphics/SVG/1.1/DTD/svg11.dtd"><svg t="1651546766101" class="icon" viewBox="0 0 1024 1024" version="1.1" xmlns="http://www.w3.org/2000/svg" p-id="8557" xmlns:xlink="http://www.w3.org/1999/xlink" width="200" height="200"><defs><style type="text/css"></style></defs><path d="M823.893333 951.893333H200.106667V72.106667H512v239.786666A72.106667 72.106667 0 0 0 584.106667 384h240.213333z m-40.106666-640h-199.68V110.506667z m91.306666-10.24L597.333333 21.333333a77.226667 77.226667 0 0 0-14.933333-11.52l-4.266667-2.133333h-2.986666A72.533333 72.533333 0 0 0 546.133333 0H200.106667A72.106667 72.106667 0 0 0 128 72.106667v879.786666A72.106667 72.106667 0 0 0 200.106667 1024h623.786666A72.106667 72.106667 0 0 0 896 951.893333V352.426667a72.106667 72.106667 0 0 0-20.906667-50.773334z" fill="#ffffff" p-id="8558"></path></svg>